<mxfile host="app.diagrams.net" agent="Mozilla/5.0 (Windows NT 6.3; Win64; x64; rv:109.0) Gecko/20100101 Firefox/115.0" version="24.7.17">
  <diagram name="PÃ¡gina-1" id="8NzWmxDuZT8YALJRp86u">
    <mxGraphModel>
      <root>
        <mxCell id="0" />
        <mxCell id="1" parent="0" />
      </root>
    </mxGraphModel>
  </diagram>
</mxfile>
